<?xml version="1.0" encoding="utf-8" standalone="no"?>
<!DOCTYPE svg PUBLIC "-//W3C//DTD SVG 1.1//EN"
  "http://www.w3.org/Graphics/SVG/1.1/DTD/svg11.dtd">
<svg xmlns:xlink="http://www.w3.org/1999/xlink" width="460.8pt" height="345.6pt" viewBox="0 0 460.8 345.6" xmlns="http://www.w3.org/2000/svg" version="1.1">
 <metadata>
  <rdf:RDF xmlns:dc="http://purl.org/dc/elements/1.1/" xmlns:cc="http://creativecommons.org/ns#" xmlns:rdf="http://www.w3.org/1999/02/22-rdf-syntax-ns#">
   <cc:Work>
    <dc:type rdf:resource="http://purl.org/dc/dcmitype/StillImage"/>
    <dc:date>2025-03-05T23:21:05.024120</dc:date>
    <dc:format>image/svg+xml</dc:format>
    <dc:creator>
     <cc:Agent>
      <dc:title>Matplotlib v3.9.1, https://matplotlib.org/</dc:title>
     </cc:Agent>
    </dc:creator>
   </cc:Work>
  </rdf:RDF>
 </metadata>
 <defs>
  <style type="text/css">*{stroke-linejoin: round; stroke-linecap: butt}</style>
 </defs>
 <g id="figure_1">
  <g id="patch_1">
   <path d="M 0 345.6 
L 460.8 345.6 
L 460.8 0 
L 0 0 
z
" style="fill: #ffffff"/>
  </g>
  <g id="axes_1">
   <g id="patch_2">
    <path d="M 10.8 334.8 
L 447 334.8 
L 447 18.064532 
L 10.8 18.064532 
z
" style="fill: #ffffff"/>
   </g>
   <g id="patch_3">
    <path d="M 156.2 123.643021 
Q 180.433333 158.835851 204.032589 193.107842 
" style="fill: none; stroke: #000000; stroke-linecap: round"/>
    <path d="M 202.789989 184.250306 
L 204.032589 193.107842 
L 196.201 188.787399 
" style="fill: none; stroke: #000000; stroke-linecap: round"/>
   </g>
   <g id="matplotlib.axis_1">
    <g id="xtick_1">
     <g id="line2d_1">
      <defs>
       <path id="me8bf199c63" d="M 0 0 
L 0 3.5 
" style="stroke: #000000; stroke-width: 0.8"/>
      </defs>
      <g>
       <use xlink:href="#me8bf199c63" x="107.733333" y="299.60717" style="stroke: #000000; stroke-width: 0.8"/>
      </g>
     </g>
     <g id="text_1">
      <!-- $x_1$ -->
      <g transform="translate(100.509074 317.676759) scale(0.16 -0.16)">
       <defs>
        <path id="CMMI12-78" d="M 3034 2606 
C 2829 2567 2752 2414 2752 2293 
C 2752 2139 2874 2088 2963 2088 
C 3155 2088 3290 2254 3290 2427 
C 3290 2695 2982 2816 2714 2816 
C 2323 2816 2106 2433 2048 2312 
C 1901 2816 1504 2816 1389 2816 
C 736 2816 390 1980 390 1839 
C 390 1814 416 1782 461 1782 
C 512 1782 525 1820 538 1846 
C 755 2555 1184 2689 1370 2689 
C 1658 2689 1715 2420 1715 2267 
C 1715 2127 1677 1980 1600 1673 
L 1382 798 
C 1286 415 1101 64 762 64 
C 730 64 570 64 435 147 
C 666 192 717 383 717 460 
C 717 588 621 664 499 664 
C 346 664 179 530 179 326 
C 179 57 480 -64 755 -64 
C 1062 -64 1280 179 1414 441 
C 1517 64 1837 -64 2074 -64 
C 2726 -64 3072 773 3072 913 
C 3072 945 3046 971 3008 971 
C 2950 971 2944 939 2925 888 
C 2752 326 2381 64 2093 64 
C 1869 64 1747 230 1747 492 
C 1747 632 1773 734 1875 1156 
L 2099 2024 
C 2195 2408 2413 2689 2707 2689 
C 2720 2689 2899 2689 3034 2606 
z
" transform="scale(0.015625)"/>
        <path id="CMR17-31" d="M 1702 4058 
C 1702 4192 1696 4192 1606 4192 
C 1357 3916 979 3827 621 3827 
C 602 3827 570 3827 563 3808 
C 557 3795 557 3782 557 3648 
C 755 3648 1088 3686 1344 3839 
L 1344 461 
C 1344 236 1331 160 781 160 
L 589 160 
L 589 0 
C 896 0 1216 0 1523 0 
C 1830 0 2150 0 2458 0 
L 2458 160 
L 2266 160 
C 1715 160 1702 230 1702 458 
L 1702 4058 
z
" transform="scale(0.015625)"/>
       </defs>
       <use xlink:href="#CMMI12-78" transform="scale(0.996264)"/>
       <use xlink:href="#CMR17-31" transform="translate(55.43406 -14.943915) scale(0.697382)"/>
      </g>
     </g>
    </g>
    <g id="xtick_2">
     <g id="line2d_2">
      <g>
       <use xlink:href="#me8bf199c63" x="156.2" y="299.60717" style="stroke: #000000; stroke-width: 0.8"/>
      </g>
     </g>
     <g id="text_2">
      <!-- $x_2$ -->
      <g transform="translate(148.975741 317.676759) scale(0.16 -0.16)">
       <defs>
        <path id="CMR17-32" d="M 2669 989 
L 2554 989 
C 2490 536 2438 459 2413 420 
C 2381 369 1920 369 1830 369 
L 602 369 
C 832 619 1280 1072 1824 1597 
C 2214 1967 2669 2402 2669 3035 
C 2669 3790 2067 4224 1395 4224 
C 691 4224 262 3604 262 3030 
C 262 2780 448 2748 525 2748 
C 589 2748 781 2787 781 3010 
C 781 3207 614 3264 525 3264 
C 486 3264 448 3258 422 3245 
C 544 3790 915 4058 1306 4058 
C 1862 4058 2227 3617 2227 3035 
C 2227 2479 1901 2000 1536 1584 
L 262 146 
L 262 0 
L 2515 0 
L 2669 989 
z
" transform="scale(0.015625)"/>
       </defs>
       <use xlink:href="#CMMI12-78" transform="scale(0.996264)"/>
       <use xlink:href="#CMR17-32" transform="translate(55.43406 -14.943915) scale(0.697382)"/>
      </g>
     </g>
    </g>
    <g id="xtick_3">
     <g id="line2d_3">
      <g>
       <use xlink:href="#me8bf199c63" x="204.666667" y="299.60717" style="stroke: #000000; stroke-width: 0.8"/>
      </g>
     </g>
     <g id="text_3">
      <!-- $x_3$ -->
      <g transform="translate(197.442407 317.676759) scale(0.16 -0.16)">
       <defs>
        <path id="CMR17-33" d="M 1414 2157 
C 1984 2157 2234 1662 2234 1090 
C 2234 320 1824 25 1453 25 
C 1114 25 563 194 390 693 
C 422 680 454 680 486 680 
C 640 680 755 782 755 948 
C 755 1133 614 1216 486 1216 
C 378 1216 211 1165 211 926 
C 211 335 787 -128 1466 -128 
C 2176 -128 2720 430 2720 1085 
C 2720 1707 2208 2157 1600 2227 
C 2086 2328 2554 2756 2554 3329 
C 2554 3820 2048 4179 1472 4179 
C 890 4179 378 3829 378 3329 
C 378 3110 544 3072 627 3072 
C 762 3072 877 3155 877 3321 
C 877 3486 762 3569 627 3569 
C 602 3569 570 3569 544 3557 
C 730 3959 1235 4032 1459 4032 
C 1683 4032 2106 3925 2106 3320 
C 2106 3143 2080 2828 1862 2550 
C 1670 2304 1453 2304 1242 2284 
C 1210 2284 1062 2269 1037 2269 
C 992 2263 966 2257 966 2208 
C 966 2163 973 2157 1101 2157 
L 1414 2157 
z
" transform="scale(0.015625)"/>
       </defs>
       <use xlink:href="#CMMI12-78" transform="scale(0.996264)"/>
       <use xlink:href="#CMR17-33" transform="translate(55.43406 -14.943915) scale(0.697382)"/>
      </g>
     </g>
    </g>
    <g id="xtick_4">
     <g id="line2d_4">
      <g>
       <use xlink:href="#me8bf199c63" x="253.133333" y="299.60717" style="stroke: #000000; stroke-width: 0.8"/>
      </g>
     </g>
     <g id="text_4">
      <!-- $x_4$ -->
      <g transform="translate(245.909074 317.676759) scale(0.16 -0.16)">
       <defs>
        <path id="CMR17-34" d="M 2150 4122 
C 2150 4256 2144 4256 2029 4256 
L 128 1254 
L 128 1088 
L 1779 1088 
L 1779 457 
C 1779 224 1766 160 1318 160 
L 1197 160 
L 1197 0 
C 1402 0 1747 0 1965 0 
C 2182 0 2528 0 2733 0 
L 2733 160 
L 2611 160 
C 2163 160 2150 224 2150 457 
L 2150 1088 
L 2803 1088 
L 2803 1254 
L 2150 1254 
L 2150 4122 
z
M 1798 3703 
L 1798 1254 
L 256 1254 
L 1798 3703 
z
" transform="scale(0.015625)"/>
       </defs>
       <use xlink:href="#CMMI12-78" transform="scale(0.996264)"/>
       <use xlink:href="#CMR17-34" transform="translate(55.43406 -14.943915) scale(0.697382)"/>
      </g>
     </g>
    </g>
    <g id="text_5">
     <!-- $x$ -->
     <g transform="translate(438.13055 335.845823) scale(0.16 -0.16)">
      <use xlink:href="#CMMI12-78" transform="scale(0.996264)"/>
     </g>
    </g>
   </g>
   <g id="matplotlib.axis_2">
    <g id="text_6">
     <!-- $y$ -->
     <g transform="translate(47.656396 14.965056) scale(0.16 -0.16)">
      <defs>
       <path id="CMMI12-79" d="M 1683 -700 
C 1510 -939 1261 -1152 947 -1152 
C 870 -1152 563 -1152 467 -889 
C 486 -895 518 -895 531 -895 
C 723 -895 851 -729 851 -582 
C 851 -435 730 -384 634 -384 
C 531 -384 307 -458 307 -759 
C 307 -1071 582 -1286 947 -1286 
C 1587 -1286 2234 -700 2413 6 
L 3040 2485 
C 3046 2517 3059 2556 3059 2594 
C 3059 2689 2982 2753 2886 2753 
C 2829 2753 2694 2727 2643 2535 
L 2170 658 
C 2138 543 2138 530 2086 460 
C 1958 281 1747 64 1440 64 
C 1082 64 1050 415 1050 588 
C 1050 952 1222 1443 1395 1903 
C 1466 2088 1504 2178 1504 2305 
C 1504 2574 1312 2816 998 2816 
C 410 2816 173 1890 173 1839 
C 173 1814 198 1782 243 1782 
C 301 1782 307 1807 333 1897 
C 486 2433 730 2689 979 2689 
C 1037 2689 1146 2689 1146 2478 
C 1146 2312 1075 2127 979 1884 
C 666 1047 666 837 666 683 
C 666 77 1101 -64 1421 -64 
C 1606 -64 1837 -6 2061 230 
L 2067 224 
C 1971 -147 1907 -392 1683 -700 
z
" transform="scale(0.015625)"/>
      </defs>
      <use xlink:href="#CMMI12-79" transform="scale(0.996264)"/>
     </g>
    </g>
   </g>
   <g id="line2d_5">
    <defs>
     <path id="m7ee95ef3aa" d="M 3 0 
L -3 -3 
L -3 3 
z
" style="stroke: #000000; stroke-linejoin: miter"/>
    </defs>
    <g>
     <use xlink:href="#m7ee95ef3aa" x="447" y="299.60717" style="stroke: #000000; stroke-linejoin: miter"/>
    </g>
   </g>
   <g id="line2d_6">
    <defs>
     <path id="m7a848fbabc" d="M 0 -3 
L -3 3 
L 3 3 
z
" style="stroke: #000000; stroke-linejoin: miter"/>
    </defs>
    <g>
     <use xlink:href="#m7a848fbabc" x="59.266667" y="18.064532" style="stroke: #000000; stroke-linejoin: miter"/>
    </g>
   </g>
   <g id="line2d_7">
    <path d="M 64.901427 -1 
L 71.516484 17.327187 
L 78.120733 34.970435 
L 84.618462 51.691385 
L 91.00967 67.521146 
L 97.294359 82.490317 
L 103.472527 96.628987 
L 109.544176 109.966733 
L 115.509304 122.532626 
L 121.367912 134.355224 
L 127.12 145.462576 
L 132.765568 155.88222 
L 138.304615 165.641187 
L 143.737143 174.765993 
L 149.06315 183.28265 
L 154.282637 191.216654 
L 159.395604 198.592997 
L 164.402051 205.436156 
L 169.408498 211.9038 
L 174.308425 217.870219 
L 179.101832 223.358872 
L 183.788718 228.392709 
L 188.369084 232.994168 
L 192.949451 237.28131 
L 197.423297 241.165314 
L 201.790623 244.667597 
L 206.157949 247.884123 
L 210.418755 250.746807 
L 214.57304 253.27605 
L 218.727326 255.546733 
L 222.775092 257.510494 
L 226.822857 259.228785 
L 230.764103 260.665992 
L 234.705348 261.870478 
L 238.646593 262.842244 
L 242.587839 263.581289 
L 246.422564 264.076989 
L 250.257289 264.352378 
L 254.092015 264.407456 
L 257.92674 264.242222 
L 261.761465 263.856678 
L 265.59619 263.250822 
L 269.430916 262.424656 
L 273.372161 261.345964 
L 277.313407 260.034552 
L 281.254652 258.49042 
L 285.302418 256.662313 
L 289.350183 254.588737 
L 293.504469 252.205348 
L 297.658755 249.5634 
L 301.91956 246.58512 
L 306.180366 243.334851 
L 310.547692 239.721052 
L 315.021538 235.722813 
L 319.495385 231.424707 
L 324.075751 226.713602 
L 328.762637 221.56757 
L 333.449524 216.092431 
L 338.24293 210.152445 
L 343.142857 203.724665 
L 348.149304 196.78563 
L 353.262271 189.311371 
L 358.481758 181.277411 
L 363.701245 172.835296 
L 369.027253 163.800161 
L 374.45978 154.146505 
L 379.998828 143.848321 
L 385.644396 132.879089 
L 391.396484 121.21178 
L 397.255092 108.818855 
L 403.22022 95.672265 
L 409.291868 81.743452 
L 415.470037 67.003347 
L 421.754725 51.422371 
L 428.145934 34.970435 
L 434.643663 17.61694 
L 441.247912 -0.669222 
L 441.36524 -1 
L 441.36524 -1 
" clip-path="url(#p9cc230ee8d)" style="fill: none; stroke: #029386; stroke-opacity: 0.7; stroke-width: 2; stroke-linecap: square"/>
   </g>
   <g id="LineCollection_1">
    <path d="M 107.733333 299.60717 
L 107.733333 106.046607 
" clip-path="url(#p9cc230ee8d)" style="fill: none; stroke-dasharray: 5.55,2.4; stroke-dashoffset: 0; stroke: #000000; stroke-opacity: 0.5; stroke-width: 1.5"/>
   </g>
   <g id="LineCollection_2">
    <path d="M 156.2 299.60717 
L 156.2 194.028681 
" clip-path="url(#p9cc230ee8d)" style="fill: none; stroke-dasharray: 5.55,2.4; stroke-dashoffset: 0; stroke: #000000; stroke-opacity: 0.5; stroke-width: 1.5"/>
   </g>
   <g id="LineCollection_3">
    <path d="M 204.666667 299.60717 
L 204.666667 246.817926 
" clip-path="url(#p9cc230ee8d)" style="fill: none; stroke-dasharray: 5.55,2.4; stroke-dashoffset: 0; stroke: #000000; stroke-opacity: 0.5; stroke-width: 1.5"/>
   </g>
   <g id="LineCollection_4">
    <path d="M 253.133333 299.60717 
L 253.133333 264.41434 
" clip-path="url(#p9cc230ee8d)" style="fill: none; stroke-dasharray: 5.55,2.4; stroke-dashoffset: 0; stroke: #000000; stroke-opacity: 0.5; stroke-width: 1.5"/>
   </g>
   <g id="line2d_8">
    <defs>
     <path id="m3eb7178228" d="M 0 4 
C 1.060812 4 2.078319 3.578535 2.828427 2.828427 
C 3.578535 2.078319 4 1.060812 4 0 
C 4 -1.060812 3.578535 -2.078319 2.828427 -2.828427 
C 2.078319 -3.578535 1.060812 -4 0 -4 
C -1.060812 -4 -2.078319 -3.578535 -2.828427 -2.828427 
C -3.578535 -2.078319 -4 -1.060812 -4 0 
C -4 1.060812 -3.578535 2.078319 -2.828427 2.828427 
C -2.078319 3.578535 -1.060812 4 0 4 
z
" style="stroke: #0000ff"/>
    </defs>
    <g clip-path="url(#p9cc230ee8d)">
     <use xlink:href="#m3eb7178228" x="107.733333" y="106.046607" style="fill: #0000ff; stroke: #0000ff"/>
    </g>
   </g>
   <g id="line2d_9">
    <g clip-path="url(#p9cc230ee8d)">
     <use xlink:href="#m3eb7178228" x="156.2" y="194.028681" style="fill: #0000ff; stroke: #0000ff"/>
    </g>
   </g>
   <g id="line2d_10">
    <g clip-path="url(#p9cc230ee8d)">
     <use xlink:href="#m3eb7178228" x="204.666667" y="246.817926" style="fill: #0000ff; stroke: #0000ff"/>
    </g>
   </g>
   <g id="line2d_11">
    <defs>
     <path id="mc6effa9eef" d="M 0 4 
C 1.060812 4 2.078319 3.578535 2.828427 2.828427 
C 3.578535 2.078319 4 1.060812 4 0 
C 4 -1.060812 3.578535 -2.078319 2.828427 -2.828427 
C 2.078319 -3.578535 1.060812 -4 0 -4 
C -1.060812 -4 -2.078319 -3.578535 -2.828427 -2.828427 
C -3.578535 -2.078319 -4 -1.060812 -4 0 
C -4 1.060812 -3.578535 2.078319 -2.828427 2.828427 
C -2.078319 3.578535 -1.060812 4 0 4 
z
" style="stroke: #ff0000"/>
    </defs>
    <g clip-path="url(#p9cc230ee8d)">
     <use xlink:href="#mc6effa9eef" x="253.133333" y="264.41434" style="fill: #ff0000; stroke: #ff0000"/>
    </g>
   </g>
   <g id="line2d_12">
    <path d="M 272.52 315.443944 
L 272.480968 314.99753 
L 272.364031 314.552914 
L 272.169658 314.111886 
L 271.898632 313.676222 
L 271.552045 313.247676 
L 271.131293 312.827973 
L 270.638069 312.418804 
L 270.07436 312.021816 
L 269.442435 311.638608 
L 268.744839 311.270722 
L 267.984382 310.919641 
L 267.164124 310.586777 
L 266.287369 310.273471 
L 265.357648 309.980986 
L 264.378703 309.710497 
L 263.354478 309.463095 
L 262.289095 309.239776 
L 261.186846 309.041439 
L 260.052168 308.868882 
L 258.88963 308.722801 
L 257.703913 308.603784 
L 256.499793 308.512309 
L 255.282117 308.448746 
L 254.055788 308.41335 
L 252.825745 308.406264 
L 251.596941 308.427516 
L 250.374323 308.47702 
L 249.162815 308.554578 
L 247.967294 308.659877 
L 246.792576 308.792493 
L 245.643389 308.951892 
L 244.524362 309.137432 
L 243.44 309.348367 
L 242.39467 309.583846 
L 241.39258 309.842921 
L 240.437767 310.12455 
L 239.534074 310.427599 
L 238.68514 310.750846 
L 237.894384 311.092991 
L 237.16499 311.452655 
L 236.499895 311.828391 
L 235.901777 312.218686 
L 235.373044 312.621968 
L 234.915826 313.036612 
L 234.531963 313.46095 
L 234.223001 313.893273 
L 233.990185 314.33184 
L 233.834451 314.774885 
L 233.756427 315.220624 
L 233.756427 315.667263 
L 233.834451 316.113002 
L 233.990185 316.556047 
L 234.223001 316.994614 
L 234.531963 317.426937 
L 234.915826 317.851275 
L 235.373044 318.26592 
L 235.901777 318.669201 
L 236.499895 319.059496 
L 237.16499 319.435232 
L 237.894384 319.794896 
L 238.68514 320.137041 
L 239.534074 320.460289 
L 240.437767 320.763337 
L 241.39258 321.044966 
L 242.39467 321.304041 
L 243.44 321.539521 
L 244.524362 321.750455 
L 245.643389 321.935995 
L 246.792576 322.095394 
L 247.967294 322.22801 
L 249.162815 322.333309 
L 250.374323 322.410867 
L 251.596941 322.460372 
L 252.825745 322.481624 
L 254.055788 322.474537 
L 255.282117 322.439141 
L 256.499793 322.375578 
L 257.703913 322.284103 
L 258.88963 322.165086 
L 260.052168 322.019005 
L 261.186846 321.846448 
L 262.289095 321.648111 
L 263.354478 321.424792 
L 264.378703 321.17739 
L 265.357648 320.906902 
L 266.287369 320.614416 
L 267.164124 320.30111 
L 267.984382 319.968247 
L 268.744839 319.617165 
L 269.442435 319.24928 
L 270.07436 318.866071 
L 270.638069 318.469083 
L 271.131293 318.059914 
L 271.552045 317.640212 
L 271.898632 317.211665 
L 272.169658 316.776001 
L 272.364031 316.334973 
L 272.480968 315.890357 
L 272.52 315.443944 
" clip-path="url(#p9cc230ee8d)" style="fill: none; stroke-dasharray: 5.55,2.4; stroke-dashoffset: 0; stroke: #ff0000; stroke-width: 1.5"/>
   </g>
   <g id="patch_4">
    <path d="M 59.266667 334.8 
L 59.266667 18.064532 
" style="fill: none; stroke: #000000; stroke-width: 0.8; stroke-linejoin: miter; stroke-linecap: square"/>
   </g>
   <g id="patch_5">
    <path d="M 447 334.8 
L 447 18.064532 
" style="fill: none"/>
   </g>
   <g id="patch_6">
    <path d="M 10.8 299.60717 
L 447 299.60717 
" style="fill: none; stroke: #000000; stroke-width: 0.8; stroke-linejoin: miter; stroke-linecap: square"/>
   </g>
   <g id="patch_7">
    <path d="M 10.8 18.064532 
L 447 18.064532 
" style="fill: none"/>
   </g>
   <g id="legend_1">
    <g id="patch_8">
     <path d="M 198.120411 53.164008 
L 259.679589 53.164008 
Q 262.879589 53.164008 262.879589 49.964008 
L 262.879589 29.264532 
Q 262.879589 26.064532 259.679589 26.064532 
L 198.120411 26.064532 
Q 194.920411 26.064532 194.920411 29.264532 
L 194.920411 49.964008 
Q 194.920411 53.164008 198.120411 53.164008 
z
" style="fill: #ffffff; opacity: 0.8; stroke: #cccccc; stroke-linejoin: miter"/>
    </g>
    <g id="line2d_13">
     <path d="M 201.320411 38.064532 
L 217.320411 38.064532 
L 233.320411 38.064532 
" style="fill: none; stroke: #029386; stroke-opacity: 0.7; stroke-width: 2; stroke-linecap: square"/>
    </g>
    <g id="text_7">
     <!-- B -->
     <g transform="translate(246.120411 43.664532) scale(0.16 -0.16)">
      <defs>
       <path id="CMSS17-42" d="M 570 4416 
L 570 0 
L 2163 0 
C 3034 0 3667 574 3667 1200 
C 3667 1685 3251 2176 2502 2317 
C 3334 2558 3501 3040 3501 3313 
C 3501 3883 2874 4416 1997 4416 
L 570 4416 
z
M 1088 2496 
L 1088 4059 
L 1824 4059 
C 2483 4059 3002 3724 3002 3306 
C 3002 2926 2592 2496 1766 2496 
L 1088 2496 
z
M 1088 357 
L 1088 2107 
L 1939 2107 
C 2630 2107 3162 1679 3162 1206 
C 3162 772 2694 357 1984 357 
L 1088 357 
z
" transform="scale(0.015625)"/>
      </defs>
      <use xlink:href="#CMSS17-42" transform="scale(0.996264)"/>
     </g>
    </g>
   </g>
  </g>
 </g>
 <defs>
  <clipPath id="p9cc230ee8d">
   <rect x="10.8" y="18.064532" width="436.2" height="316.735468"/>
  </clipPath>
 </defs>
</svg>
