<?xml version="1.0" encoding="utf-8" standalone="no"?>
<!DOCTYPE svg PUBLIC "-//W3C//DTD SVG 1.1//EN"
  "http://www.w3.org/Graphics/SVG/1.1/DTD/svg11.dtd">
<svg xmlns:xlink="http://www.w3.org/1999/xlink" width="460.8pt" height="345.6pt" viewBox="0 0 460.8 345.6" xmlns="http://www.w3.org/2000/svg" version="1.1">
 <metadata>
  <rdf:RDF xmlns:dc="http://purl.org/dc/elements/1.1/" xmlns:cc="http://creativecommons.org/ns#" xmlns:rdf="http://www.w3.org/1999/02/22-rdf-syntax-ns#">
   <cc:Work>
    <dc:type rdf:resource="http://purl.org/dc/dcmitype/StillImage"/>
    <dc:date>2025-03-05T23:20:52.142929</dc:date>
    <dc:format>image/svg+xml</dc:format>
    <dc:creator>
     <cc:Agent>
      <dc:title>Matplotlib v3.9.1, https://matplotlib.org/</dc:title>
     </cc:Agent>
    </dc:creator>
   </cc:Work>
  </rdf:RDF>
 </metadata>
 <defs>
  <style type="text/css">*{stroke-linejoin: round; stroke-linecap: butt}</style>
 </defs>
 <g id="figure_1">
  <g id="patch_1">
   <path d="M 0 345.6 
L 460.8 345.6 
L 460.8 0 
L 0 0 
z
" style="fill: #ffffff"/>
  </g>
  <g id="axes_1">
   <g id="patch_2">
    <path d="M 10.8 334.8 
L 447 334.8 
L 447 18.064532 
L 10.8 18.064532 
z
" style="fill: #ffffff"/>
   </g>
   <g id="patch_3">
    <path d="M 107.733333 194.028681 
Q 131.966667 158.835851 155.565922 124.563861 
" style="fill: none; stroke: #000000; stroke-linecap: round"/>
    <path d="M 147.734333 128.884303 
L 155.565922 124.563861 
L 154.323323 133.421397 
" style="fill: none; stroke: #000000; stroke-linecap: round"/>
   </g>
   <g id="matplotlib.axis_1">
    <g id="xtick_1">
     <g id="line2d_1">
      <defs>
       <path id="md4ef2798bc" d="M 0 0 
L 0 3.5 
" style="stroke: #000000; stroke-width: 0.8"/>
      </defs>
      <g>
       <use xlink:href="#md4ef2798bc" x="107.733333" y="299.60717" style="stroke: #000000; stroke-width: 0.8"/>
      </g>
     </g>
     <g id="text_1">
      <!-- $x_1$ -->
      <g transform="translate(100.509074 317.676759) scale(0.16 -0.16)">
       <defs>
        <path id="CMMI12-78" d="M 3034 2606 
C 2829 2567 2752 2414 2752 2293 
C 2752 2139 2874 2088 2963 2088 
C 3155 2088 3290 2254 3290 2427 
C 3290 2695 2982 2816 2714 2816 
C 2323 2816 2106 2433 2048 2312 
C 1901 2816 1504 2816 1389 2816 
C 736 2816 390 1980 390 1839 
C 390 1814 416 1782 461 1782 
C 512 1782 525 1820 538 1846 
C 755 2555 1184 2689 1370 2689 
C 1658 2689 1715 2420 1715 2267 
C 1715 2127 1677 1980 1600 1673 
L 1382 798 
C 1286 415 1101 64 762 64 
C 730 64 570 64 435 147 
C 666 192 717 383 717 460 
C 717 588 621 664 499 664 
C 346 664 179 530 179 326 
C 179 57 480 -64 755 -64 
C 1062 -64 1280 179 1414 441 
C 1517 64 1837 -64 2074 -64 
C 2726 -64 3072 773 3072 913 
C 3072 945 3046 971 3008 971 
C 2950 971 2944 939 2925 888 
C 2752 326 2381 64 2093 64 
C 1869 64 1747 230 1747 492 
C 1747 632 1773 734 1875 1156 
L 2099 2024 
C 2195 2408 2413 2689 2707 2689 
C 2720 2689 2899 2689 3034 2606 
z
" transform="scale(0.015625)"/>
        <path id="CMR17-31" d="M 1702 4058 
C 1702 4192 1696 4192 1606 4192 
C 1357 3916 979 3827 621 3827 
C 602 3827 570 3827 563 3808 
C 557 3795 557 3782 557 3648 
C 755 3648 1088 3686 1344 3839 
L 1344 461 
C 1344 236 1331 160 781 160 
L 589 160 
L 589 0 
C 896 0 1216 0 1523 0 
C 1830 0 2150 0 2458 0 
L 2458 160 
L 2266 160 
C 1715 160 1702 230 1702 458 
L 1702 4058 
z
" transform="scale(0.015625)"/>
       </defs>
       <use xlink:href="#CMMI12-78" transform="scale(0.996264)"/>
       <use xlink:href="#CMR17-31" transform="translate(55.43406 -14.943915) scale(0.697382)"/>
      </g>
     </g>
    </g>
    <g id="xtick_2">
     <g id="line2d_2">
      <g>
       <use xlink:href="#md4ef2798bc" x="156.2" y="299.60717" style="stroke: #000000; stroke-width: 0.8"/>
      </g>
     </g>
     <g id="text_2">
      <!-- $x_2$ -->
      <g transform="translate(148.975741 317.676759) scale(0.16 -0.16)">
       <defs>
        <path id="CMR17-32" d="M 2669 989 
L 2554 989 
C 2490 536 2438 459 2413 420 
C 2381 369 1920 369 1830 369 
L 602 369 
C 832 619 1280 1072 1824 1597 
C 2214 1967 2669 2402 2669 3035 
C 2669 3790 2067 4224 1395 4224 
C 691 4224 262 3604 262 3030 
C 262 2780 448 2748 525 2748 
C 589 2748 781 2787 781 3010 
C 781 3207 614 3264 525 3264 
C 486 3264 448 3258 422 3245 
C 544 3790 915 4058 1306 4058 
C 1862 4058 2227 3617 2227 3035 
C 2227 2479 1901 2000 1536 1584 
L 262 146 
L 262 0 
L 2515 0 
L 2669 989 
z
" transform="scale(0.015625)"/>
       </defs>
       <use xlink:href="#CMMI12-78" transform="scale(0.996264)"/>
       <use xlink:href="#CMR17-32" transform="translate(55.43406 -14.943915) scale(0.697382)"/>
      </g>
     </g>
    </g>
    <g id="xtick_3">
     <g id="line2d_3">
      <g>
       <use xlink:href="#md4ef2798bc" x="204.666667" y="299.60717" style="stroke: #000000; stroke-width: 0.8"/>
      </g>
     </g>
     <g id="text_3">
      <!-- $x_3$ -->
      <g transform="translate(197.442407 317.676759) scale(0.16 -0.16)">
       <defs>
        <path id="CMR17-33" d="M 1414 2157 
C 1984 2157 2234 1662 2234 1090 
C 2234 320 1824 25 1453 25 
C 1114 25 563 194 390 693 
C 422 680 454 680 486 680 
C 640 680 755 782 755 948 
C 755 1133 614 1216 486 1216 
C 378 1216 211 1165 211 926 
C 211 335 787 -128 1466 -128 
C 2176 -128 2720 430 2720 1085 
C 2720 1707 2208 2157 1600 2227 
C 2086 2328 2554 2756 2554 3329 
C 2554 3820 2048 4179 1472 4179 
C 890 4179 378 3829 378 3329 
C 378 3110 544 3072 627 3072 
C 762 3072 877 3155 877 3321 
C 877 3486 762 3569 627 3569 
C 602 3569 570 3569 544 3557 
C 730 3959 1235 4032 1459 4032 
C 1683 4032 2106 3925 2106 3320 
C 2106 3143 2080 2828 1862 2550 
C 1670 2304 1453 2304 1242 2284 
C 1210 2284 1062 2269 1037 2269 
C 992 2263 966 2257 966 2208 
C 966 2163 973 2157 1101 2157 
L 1414 2157 
z
" transform="scale(0.015625)"/>
       </defs>
       <use xlink:href="#CMMI12-78" transform="scale(0.996264)"/>
       <use xlink:href="#CMR17-33" transform="translate(55.43406 -14.943915) scale(0.697382)"/>
      </g>
     </g>
    </g>
    <g id="xtick_4">
     <g id="line2d_4">
      <g>
       <use xlink:href="#md4ef2798bc" x="253.133333" y="299.60717" style="stroke: #000000; stroke-width: 0.8"/>
      </g>
     </g>
     <g id="text_4">
      <!-- $x_4$ -->
      <g transform="translate(245.909074 317.676759) scale(0.16 -0.16)">
       <defs>
        <path id="CMR17-34" d="M 2150 4122 
C 2150 4256 2144 4256 2029 4256 
L 128 1254 
L 128 1088 
L 1779 1088 
L 1779 457 
C 1779 224 1766 160 1318 160 
L 1197 160 
L 1197 0 
C 1402 0 1747 0 1965 0 
C 2182 0 2528 0 2733 0 
L 2733 160 
L 2611 160 
C 2163 160 2150 224 2150 457 
L 2150 1088 
L 2803 1088 
L 2803 1254 
L 2150 1254 
L 2150 4122 
z
M 1798 3703 
L 1798 1254 
L 256 1254 
L 1798 3703 
z
" transform="scale(0.015625)"/>
       </defs>
       <use xlink:href="#CMMI12-78" transform="scale(0.996264)"/>
       <use xlink:href="#CMR17-34" transform="translate(55.43406 -14.943915) scale(0.697382)"/>
      </g>
     </g>
    </g>
    <g id="text_5">
     <!-- $x$ -->
     <g transform="translate(438.13055 335.845823) scale(0.16 -0.16)">
      <use xlink:href="#CMMI12-78" transform="scale(0.996264)"/>
     </g>
    </g>
   </g>
   <g id="matplotlib.axis_2">
    <g id="text_6">
     <!-- $y$ -->
     <g transform="translate(47.656396 14.965056) scale(0.16 -0.16)">
      <defs>
       <path id="CMMI12-79" d="M 1683 -700 
C 1510 -939 1261 -1152 947 -1152 
C 870 -1152 563 -1152 467 -889 
C 486 -895 518 -895 531 -895 
C 723 -895 851 -729 851 -582 
C 851 -435 730 -384 634 -384 
C 531 -384 307 -458 307 -759 
C 307 -1071 582 -1286 947 -1286 
C 1587 -1286 2234 -700 2413 6 
L 3040 2485 
C 3046 2517 3059 2556 3059 2594 
C 3059 2689 2982 2753 2886 2753 
C 2829 2753 2694 2727 2643 2535 
L 2170 658 
C 2138 543 2138 530 2086 460 
C 1958 281 1747 64 1440 64 
C 1082 64 1050 415 1050 588 
C 1050 952 1222 1443 1395 1903 
C 1466 2088 1504 2178 1504 2305 
C 1504 2574 1312 2816 998 2816 
C 410 2816 173 1890 173 1839 
C 173 1814 198 1782 243 1782 
C 301 1782 307 1807 333 1897 
C 486 2433 730 2689 979 2689 
C 1037 2689 1146 2689 1146 2478 
C 1146 2312 1075 2127 979 1884 
C 666 1047 666 837 666 683 
C 666 77 1101 -64 1421 -64 
C 1606 -64 1837 -6 2061 230 
L 2067 224 
C 1971 -147 1907 -392 1683 -700 
z
" transform="scale(0.015625)"/>
      </defs>
      <use xlink:href="#CMMI12-79" transform="scale(0.996264)"/>
     </g>
    </g>
   </g>
   <g id="line2d_5">
    <defs>
     <path id="m959924f972" d="M 3 0 
L -3 -3 
L -3 3 
z
" style="stroke: #000000; stroke-linejoin: miter"/>
    </defs>
    <g>
     <use xlink:href="#m959924f972" x="447" y="299.60717" style="stroke: #000000; stroke-linejoin: miter"/>
    </g>
   </g>
   <g id="line2d_6">
    <defs>
     <path id="m89767bdf87" d="M 0 -3 
L -3 3 
L 3 3 
z
" style="stroke: #000000; stroke-linejoin: miter"/>
    </defs>
    <g>
     <use xlink:href="#m89767bdf87" x="59.266667" y="18.064532" style="stroke: #000000; stroke-linejoin: miter"/>
    </g>
   </g>
   <g id="line2d_7">
    <path d="M 67.495306 346.6 
L 74.072967 328.630184 
L 80.570696 311.51519 
L 86.961905 295.297844 
L 93.246593 279.947549 
L 99.424762 265.434214 
L 105.49641 251.728262 
L 111.461538 238.800624 
L 117.320147 226.622741 
L 123.072234 215.166563 
L 128.824322 204.206085 
L 134.46989 193.930595 
L 140.008938 184.313063 
L 145.441465 175.326971 
L 150.767473 166.946309 
L 155.98696 159.145579 
L 161.099927 151.899791 
L 166.106374 145.184467 
L 171.0063 138.975638 
L 175.906227 133.126514 
L 180.699634 127.752606 
L 185.38652 122.830964 
L 189.966886 118.339151 
L 194.440733 114.255235 
L 198.914579 110.471188 
L 203.281905 107.06648 
L 207.542711 104.020203 
L 211.803516 101.245915 
L 215.957802 98.802859 
L 220.112088 96.618362 
L 224.159853 94.738578 
L 228.207619 93.104264 
L 232.148864 91.748824 
L 236.09011 90.626104 
L 240.031355 89.736105 
L 243.866081 89.093531 
L 247.700806 88.671268 
L 251.535531 88.469316 
L 255.370256 88.487675 
L 259.204982 88.726346 
L 263.039707 89.185327 
L 266.874432 89.86462 
L 270.815678 90.792357 
L 274.756923 91.952815 
L 278.698168 93.345994 
L 282.639414 94.971894 
L 286.687179 96.883976 
L 290.734945 99.041529 
L 294.889231 101.511105 
L 299.043516 104.23924 
L 303.304322 107.305916 
L 307.565128 110.644581 
L 311.932454 114.348987 
L 316.4063 118.440041 
L 320.880147 122.830964 
L 325.460513 127.637095 
L 330.147399 132.880364 
L 334.940806 138.583209 
L 339.734212 144.63029 
L 344.634139 151.167546 
L 349.640586 158.218436 
L 354.753553 165.80693 
L 359.97304 173.957506 
L 365.299048 182.695153 
L 370.731575 192.045371 
L 376.164103 201.837741 
L 381.70315 212.27736 
L 387.348718 223.390746 
L 393.100806 235.204929 
L 398.959414 247.747448 
L 404.924542 261.046351 
L 410.99619 275.130198 
L 417.174359 290.028057 
L 423.459048 305.769507 
L 429.850256 322.384636 
L 436.347985 339.904044 
L 438.771361 346.6 
L 438.771361 346.6 
" clip-path="url(#p20a40c3484)" style="fill: none; stroke: #029386; stroke-opacity: 0.7; stroke-width: 2; stroke-linecap: square"/>
   </g>
   <g id="LineCollection_1">
    <path d="M 107.733333 299.60717 
L 107.733333 246.817926 
" clip-path="url(#p20a40c3484)" style="fill: none; stroke-dasharray: 5.55,2.4; stroke-dashoffset: 0; stroke: #000000; stroke-opacity: 0.5; stroke-width: 1.5"/>
   </g>
   <g id="LineCollection_2">
    <path d="M 156.2 299.60717 
L 156.2 158.835851 
" clip-path="url(#p20a40c3484)" style="fill: none; stroke-dasharray: 5.55,2.4; stroke-dashoffset: 0; stroke: #000000; stroke-opacity: 0.5; stroke-width: 1.5"/>
   </g>
   <g id="LineCollection_3">
    <path d="M 204.666667 299.60717 
L 204.666667 106.046607 
" clip-path="url(#p20a40c3484)" style="fill: none; stroke-dasharray: 5.55,2.4; stroke-dashoffset: 0; stroke: #000000; stroke-opacity: 0.5; stroke-width: 1.5"/>
   </g>
   <g id="LineCollection_4">
    <path d="M 253.133333 299.60717 
L 253.133333 88.450192 
" clip-path="url(#p20a40c3484)" style="fill: none; stroke-dasharray: 5.55,2.4; stroke-dashoffset: 0; stroke: #000000; stroke-opacity: 0.5; stroke-width: 1.5"/>
   </g>
   <g id="line2d_8">
    <defs>
     <path id="m76c38d5edd" d="M 0 4 
C 1.060812 4 2.078319 3.578535 2.828427 2.828427 
C 3.578535 2.078319 4 1.060812 4 0 
C 4 -1.060812 3.578535 -2.078319 2.828427 -2.828427 
C 2.078319 -3.578535 1.060812 -4 0 -4 
C -1.060812 -4 -2.078319 -3.578535 -2.828427 -2.828427 
C -3.578535 -2.078319 -4 -1.060812 -4 0 
C -4 1.060812 -3.578535 2.078319 -2.828427 2.828427 
C -2.078319 3.578535 -1.060812 4 0 4 
z
" style="stroke: #0000ff"/>
    </defs>
    <g clip-path="url(#p20a40c3484)">
     <use xlink:href="#m76c38d5edd" x="107.733333" y="246.817926" style="fill: #0000ff; stroke: #0000ff"/>
    </g>
   </g>
   <g id="line2d_9">
    <g clip-path="url(#p20a40c3484)">
     <use xlink:href="#m76c38d5edd" x="156.2" y="158.835851" style="fill: #0000ff; stroke: #0000ff"/>
    </g>
   </g>
   <g id="line2d_10">
    <g clip-path="url(#p20a40c3484)">
     <use xlink:href="#m76c38d5edd" x="204.666667" y="106.046607" style="fill: #0000ff; stroke: #0000ff"/>
    </g>
   </g>
   <g id="line2d_11">
    <defs>
     <path id="mc08ef7b7fa" d="M 0 4 
C 1.060812 4 2.078319 3.578535 2.828427 2.828427 
C 3.578535 2.078319 4 1.060812 4 0 
C 4 -1.060812 3.578535 -2.078319 2.828427 -2.828427 
C 2.078319 -3.578535 1.060812 -4 0 -4 
C -1.060812 -4 -2.078319 -3.578535 -2.828427 -2.828427 
C -3.578535 -2.078319 -4 -1.060812 -4 0 
C -4 1.060812 -3.578535 2.078319 -2.828427 2.828427 
C -2.078319 3.578535 -1.060812 4 0 4 
z
" style="stroke: #ff0000"/>
    </defs>
    <g clip-path="url(#p20a40c3484)">
     <use xlink:href="#mc08ef7b7fa" x="253.133333" y="88.450192" style="fill: #ff0000; stroke: #ff0000"/>
    </g>
   </g>
   <g id="line2d_12">
    <path d="M 272.52 315.443944 
L 272.480968 314.99753 
L 272.364031 314.552914 
L 272.169658 314.111886 
L 271.898632 313.676222 
L 271.552045 313.247676 
L 271.131293 312.827973 
L 270.638069 312.418804 
L 270.07436 312.021816 
L 269.442435 311.638608 
L 268.744839 311.270722 
L 267.984382 310.919641 
L 267.164124 310.586777 
L 266.287369 310.273471 
L 265.357648 309.980986 
L 264.378703 309.710497 
L 263.354478 309.463095 
L 262.289095 309.239776 
L 261.186846 309.041439 
L 260.052168 308.868882 
L 258.88963 308.722801 
L 257.703913 308.603784 
L 256.499793 308.512309 
L 255.282117 308.448746 
L 254.055788 308.41335 
L 252.825745 308.406264 
L 251.596941 308.427516 
L 250.374323 308.47702 
L 249.162815 308.554578 
L 247.967294 308.659877 
L 246.792576 308.792493 
L 245.643389 308.951892 
L 244.524362 309.137432 
L 243.44 309.348367 
L 242.39467 309.583846 
L 241.39258 309.842921 
L 240.437767 310.12455 
L 239.534074 310.427599 
L 238.68514 310.750846 
L 237.894384 311.092991 
L 237.16499 311.452655 
L 236.499895 311.828391 
L 235.901777 312.218686 
L 235.373044 312.621968 
L 234.915826 313.036612 
L 234.531963 313.46095 
L 234.223001 313.893273 
L 233.990185 314.33184 
L 233.834451 314.774885 
L 233.756427 315.220624 
L 233.756427 315.667263 
L 233.834451 316.113002 
L 233.990185 316.556047 
L 234.223001 316.994614 
L 234.531963 317.426937 
L 234.915826 317.851275 
L 235.373044 318.26592 
L 235.901777 318.669201 
L 236.499895 319.059496 
L 237.16499 319.435232 
L 237.894384 319.794896 
L 238.68514 320.137041 
L 239.534074 320.460289 
L 240.437767 320.763337 
L 241.39258 321.044966 
L 242.39467 321.304041 
L 243.44 321.539521 
L 244.524362 321.750455 
L 245.643389 321.935995 
L 246.792576 322.095394 
L 247.967294 322.22801 
L 249.162815 322.333309 
L 250.374323 322.410867 
L 251.596941 322.460372 
L 252.825745 322.481624 
L 254.055788 322.474537 
L 255.282117 322.439141 
L 256.499793 322.375578 
L 257.703913 322.284103 
L 258.88963 322.165086 
L 260.052168 322.019005 
L 261.186846 321.846448 
L 262.289095 321.648111 
L 263.354478 321.424792 
L 264.378703 321.17739 
L 265.357648 320.906902 
L 266.287369 320.614416 
L 267.164124 320.30111 
L 267.984382 319.968247 
L 268.744839 319.617165 
L 269.442435 319.24928 
L 270.07436 318.866071 
L 270.638069 318.469083 
L 271.131293 318.059914 
L 271.552045 317.640212 
L 271.898632 317.211665 
L 272.169658 316.776001 
L 272.364031 316.334973 
L 272.480968 315.890357 
L 272.52 315.443944 
" clip-path="url(#p20a40c3484)" style="fill: none; stroke-dasharray: 5.55,2.4; stroke-dashoffset: 0; stroke: #ff0000; stroke-width: 1.5"/>
   </g>
   <g id="patch_4">
    <path d="M 59.266667 334.8 
L 59.266667 18.064532 
" style="fill: none; stroke: #000000; stroke-width: 0.8; stroke-linejoin: miter; stroke-linecap: square"/>
   </g>
   <g id="patch_5">
    <path d="M 447 334.8 
L 447 18.064532 
" style="fill: none"/>
   </g>
   <g id="patch_6">
    <path d="M 10.8 299.60717 
L 447 299.60717 
" style="fill: none; stroke: #000000; stroke-width: 0.8; stroke-linejoin: miter; stroke-linecap: square"/>
   </g>
   <g id="patch_7">
    <path d="M 10.8 18.064532 
L 447 18.064532 
" style="fill: none"/>
   </g>
   <g id="legend_1">
    <g id="patch_8">
     <path d="M 198.143472 53.164008 
L 259.656528 53.164008 
Q 262.856528 53.164008 262.856528 49.964008 
L 262.856528 29.264532 
Q 262.856528 26.064532 259.656528 26.064532 
L 198.143472 26.064532 
Q 194.943472 26.064532 194.943472 29.264532 
L 194.943472 49.964008 
Q 194.943472 53.164008 198.143472 53.164008 
z
" style="fill: #ffffff; opacity: 0.8; stroke: #cccccc; stroke-linejoin: miter"/>
    </g>
    <g id="line2d_13">
     <path d="M 201.343472 38.064532 
L 217.343472 38.064532 
L 233.343472 38.064532 
" style="fill: none; stroke: #029386; stroke-opacity: 0.7; stroke-width: 2; stroke-linecap: square"/>
    </g>
    <g id="text_7">
     <!-- A -->
     <g transform="translate(246.143472 43.664532) scale(0.16 -0.16)">
      <defs>
       <path id="CMSS17-41" d="M 2272 4416 
L 1722 4416 
L 166 0 
L 653 0 
L 1101 1280 
L 2816 1280 
L 3270 0 
L 3827 0 
L 2272 4416 
z
M 2694 1637 
L 1222 1637 
C 1530 2528 1914 3638 1958 3925 
L 1965 3925 
C 2010 3663 2138 3281 2246 2956 
L 2694 1637 
z
" transform="scale(0.015625)"/>
      </defs>
      <use xlink:href="#CMSS17-41" transform="scale(0.996264)"/>
     </g>
    </g>
   </g>
  </g>
 </g>
 <defs>
  <clipPath id="p20a40c3484">
   <rect x="10.8" y="18.064532" width="436.2" height="316.735468"/>
  </clipPath>
 </defs>
</svg>
