<?xml version="1.0" encoding="utf-8"?>
<!DOCTYPE svg PUBLIC "-//W3C//DTD SVG 1.1//EN" "http://www.w3.org/Graphics/SVG/1.1/DTD/svg11.dtd" [
	<!ENTITY ns_svg "http://www.w3.org/2000/svg">
	<!ENTITY ns_xlink "http://www.w3.org/1999/xlink">
]>
<svg  version="1.1" id="Layer_1" xmlns="&ns_svg;" xmlns:xlink="&ns_xlink;" width="1100" height="330" viewBox="0 0 550 165" xml:space="preserve">

<title>European roulette layout</title>
<desc>European roulette table and wheel layout - First published Betzaar.com under the CreativeCommons Attribution+ShareAlike licence</desc>

<rect fill="#060" width="100%" height="100%"/>
<text transform="matrix(1 0 0 1 190 160)" fill="#fff" font-family="'Verdana'" font-size="12">European roulette</text>
<text transform="matrix(1 0 0 1 505 164)" fill="#fff" font-family="'Verdana'" font-size="6">CC-BY-SA-3.0</text>
<g>
	<g>
		<g>
			<g id="XMLID_3_">
				<g>
					<rect x="488.249" y="72.12" fill="#f00" width="26.916" height="33.349"/>
					<rect x="488.249" y="38.817" width="26.916" height="33.303"/>
					<rect x="488.249" y="5.468" fill="#f00" width="26.916" height="33.352"/>
					<rect x="461.334" y="72.12" width="26.914" height="33.349"/>
					<rect x="461.334" y="38.817" fill="#f00" width="26.914" height="33.303"/>
					<rect x="461.334" y="5.468" width="26.914" height="33.352"/>
					<rect x="434.418" y="72.12" fill="#f00" width="26.916" height="33.349"/>
					<rect x="434.418" y="38.817" width="26.916" height="33.303"/>
					<rect x="434.418" y="5.468" fill="#f00" width="26.916" height="33.352"/>
					<rect x="407.504" y="72.12" fill="#f00" width="26.914" height="33.349"/>
					<rect x="407.504" y="38.817" width="26.914" height="33.303"/>
					<rect x="407.504" y="5.468" fill="#f00" width="26.914" height="33.352"/>
					<rect x="380.579" y="72.12" width="26.926" height="33.349"/>
					<rect x="380.579" y="38.817" fill="#f00" width="26.926" height="33.303"/>
					<rect x="380.579" y="5.468" width="26.926" height="33.352"/>
					<rect x="353.581" y="72.12" width="26.998" height="33.349"/>
					<rect x="353.581" y="38.817" width="26.998" height="33.303"/>
					<rect x="353.581" y="5.468" fill="#f00" width="26.998" height="33.352"/>
					<rect x="326.665" y="72.12" fill="#f00" width="26.916" height="33.349"/>
					<rect x="326.665" y="38.817" width="26.916" height="33.303"/>
					<rect x="326.665" y="5.468" fill="#f00" width="26.916" height="33.352"/>
					<rect x="299.75" y="72.12" width="26.914" height="33.349"/>
					<rect x="299.75" y="38.817" fill="#f00" width="26.914" height="33.303"/>
					<rect x="299.75" y="5.468" width="26.914" height="33.352"/>
					<rect x="272.835" y="72.12" width="26.916" height="33.349"/>
					<rect x="272.835" y="38.817" width="26.916" height="33.303"/>
					<rect x="272.835" y="5.468" fill="#f00" width="26.916" height="33.352"/>
					<rect x="245.919" y="72.12" fill="#f00" width="26.916" height="33.349"/>
					<rect x="245.919" y="38.817" width="26.916" height="33.303"/>
					<rect x="245.919" y="5.468" fill="#f00" width="26.916" height="33.352"/>
					<rect x="219.004" y="72.12" width="26.915" height="33.349"/>
					<rect x="219.004" y="38.817" fill="#f00" width="26.915" height="33.303"/>
					<rect x="219.004" y="5.468" width="26.915" height="33.352"/>
					<rect x="192.079" y="72.12" fill="#f00" width="26.925" height="33.349"/>
					<rect x="192.079" y="38.817" width="26.925" height="33.303"/>
					<rect x="192.079" y="5.468" fill="#f00" width="26.925" height="33.352"/>
				</g>
				<g>
					<polygon fill="none" stroke="#fff" points="192.079,38.817 192.079,5.468 219.004,5.468 245.919,5.468 272.835,5.468 
						299.75,5.468 326.665,5.468 353.581,5.468 380.579,5.468 407.504,5.468 434.418,5.468 461.334,5.468 488.249,5.468 
						515.165,5.468 542.079,5.468 542.079,38.817 542.079,72.12 542.079,105.469 515.165,105.469 488.249,105.469 461.334,105.469 
						434.418,105.469 407.504,105.469 380.579,105.469 353.581,105.469 326.665,105.469 299.75,105.469 272.835,105.469 
						245.919,105.469 219.004,105.469 192.079,105.469 192.079,72.12 					"/>
					<polyline fill="none" stroke="#fff" points="192.079,72.12 219.004,72.12 245.919,72.12 272.835,72.12 299.75,72.12 
						326.665,72.12 353.581,72.12 380.579,72.12 407.504,72.12 434.418,72.12 461.334,72.12 488.249,72.12 515.165,72.12 
						542.079,72.12 					"/>
					<polyline fill="none" stroke="#fff" points="192.079,38.817 219.004,38.817 245.919,38.817 272.835,38.817 299.75,38.817 
						326.665,38.817 353.581,38.817 380.579,38.817 407.504,38.817 434.418,38.817 461.334,38.817 488.249,38.817 515.165,38.817 
						542.079,38.817 					"/>
					<polyline fill="none" stroke="#fff" points="515.165,5.468 515.165,38.817 515.165,72.12 515.165,105.469 					"/>
					<polyline fill="none" stroke="#fff" points="488.249,5.468 488.249,38.817 488.249,72.12 488.249,105.469 					"/>
					<polyline fill="none" stroke="#fff" points="461.334,5.468 461.334,38.817 461.334,72.12 461.334,105.469 					"/>
					<polyline fill="none" stroke="#fff" points="434.418,5.468 434.418,38.817 434.418,72.12 434.418,105.469 					"/>
					<polyline fill="none" stroke="#fff" points="407.504,5.468 407.504,38.817 407.504,72.12 407.504,105.469 					"/>
					<polyline fill="none" stroke="#fff" points="380.579,5.468 380.579,38.817 380.579,72.12 380.579,105.469 					"/>
					<polyline fill="none" stroke="#fff" points="353.581,5.468 353.581,38.817 353.581,72.12 353.581,105.469 					"/>
					<polyline fill="none" stroke="#fff" points="326.665,5.468 326.665,38.817 326.665,72.12 326.665,105.469 					"/>
					<polyline fill="none" stroke="#fff" points="299.75,5.468 299.75,38.817 299.75,72.12 299.75,105.469 					"/>
					<polyline fill="none" stroke="#fff" points="272.835,5.468 272.835,38.817 272.835,72.12 272.835,105.469 					"/>
					<polyline fill="none" stroke="#fff" points="245.919,5.468 245.919,38.817 245.919,72.12 245.919,105.469 					"/>
					<polyline fill="none" stroke="#fff" points="219.004,5.468 219.004,38.817 219.004,72.12 219.004,105.469 					"/>
				</g>
			</g>
		</g>
		<g>
			<g>
				<g id="XMLID_1_">
					<g>
						<rect x="353.581" y="125.6" width="53.861" height="20"/>
						<rect x="299.72" y="125.6" fill="#f00" width="53.86" height="20"/>
					</g>
					<g>
						<polygon fill="none" stroke="#fff" points="192.081,125.6 192.081,105.6 299.72,105.6 407.44,105.6 515.081,105.6 
							515.081,125.6 515.081,145.6 461.221,145.6 407.44,145.6 353.581,145.6 299.72,145.6 245.94,145.6 192.081,145.6 						"/>
						<polyline fill="none" stroke="#fff" points="192.081,125.6 245.94,125.6 299.72,125.6 353.581,125.6 407.44,125.6 
							461.221,125.6 515.081,125.6 						"/>
						<line fill="none" stroke="#fff" x1="461.221" y1="125.6" x2="461.221" y2="145.6"/>
						<polyline fill="none" stroke="#fff" points="407.44,105.6 407.44,125.6 407.44,145.6 						"/>
						<line fill="none" stroke="#fff" x1="353.581" y1="125.6" x2="353.581" y2="145.6"/>
						<polyline fill="none" stroke="#fff" points="299.72,105.6 299.72,125.6 299.72,145.6 						"/>
						<line fill="none" stroke="#fff" x1="245.94" y1="125.6" x2="245.94" y2="145.6"/>
					</g>
				</g>
			</g>
		</g>
		<path fill="none" stroke="#fff" d="M192.023,105.468c-6.813,0-13.626,0-20.439,0l-6.561-51l6.561-49c6.813,0,13.626,0,20.439,0
			"/>
	</g>
	<g fill="#fff" font-family="'Verdana'" font-size="14">
		
			<text transform="matrix(-4.371139e-008 -1 1 -4.371139e-008 209.8462 93.2649)">1</text>
		
			<text transform="matrix(-4.371139e-008 -1 1 -4.371139e-008 183.771 60.22)">0</text>
		
			<text transform="matrix(-4.371139e-008 -1 1 -4.371139e-008 209.8462 60.22)">2</text>
		
			<text transform="matrix(-4.371139e-008 -1 1 -4.371139e-008 209.8462 26.5383)">3</text>
		
			<text transform="matrix(-4.371139e-008 -1 1 -4.371139e-008 237.5142 93.2649)">4</text>
		
			<text transform="matrix(-4.371139e-008 -1 1 -4.371139e-008 237.5142 26.5383)">6</text>
		
			<text transform="matrix(-4.371139e-008 -1 1 -4.371139e-008 237.5142 60.22)">5</text>
		
			<text transform="matrix(-4.371139e-008 -1 1 -4.371139e-008 263.9478 93.2649)">7</text>
		
			<text transform="matrix(-4.371139e-008 -1 1 -4.371139e-008 263.9478 60.22)">8</text>
		
			<text transform="matrix(-4.371139e-008 -1 1 -4.371139e-008 263.9478 26.5383)">9</text>
		
			<text transform="matrix(-4.371139e-008 -1 1 -4.371139e-008 290.6157 97.7141)">10</text>
		
			<text transform="matrix(-4.371139e-008 -1 1 -4.371139e-008 290.6157 30.9895)">12</text>
		
			<text transform="matrix(-4.371139e-008 -1 1 -4.371139e-008 290.6157 64.6711)">11</text>
		
			<text transform="matrix(-4.371139e-008 -1 1 -4.371139e-008 318.27 97.7141)">13</text>
		
			<text transform="matrix(-4.371139e-008 -1 1 -4.371139e-008 318.27 64.6711)">14</text>
		
			<text transform="matrix(-4.371139e-008 -1 1 -4.371139e-008 318.27 30.9895)">15</text>
		
			<text transform="matrix(-4.371139e-008 -1 1 -4.371139e-008 344.939 97.7141)">16</text>
		
			<text transform="matrix(-4.371139e-008 -1 1 -4.371139e-008 344.939 30.9895)">18</text>
		
			<text transform="matrix(-4.371139e-008 -1 1 -4.371139e-008 344.939 64.6711)">17</text>
		
			<text transform="matrix(-4.371139e-008 -1 1 -4.371139e-008 371.9272 97.7141)">19</text>
		
			<text transform="matrix(-4.371139e-008 -1 1 -4.371139e-008 371.9272 64.6711)">20</text>
		
			<text transform="matrix(-4.371139e-008 -1 1 -4.371139e-008 371.9272 30.9895)">21</text>
		
			<text transform="matrix(-4.371139e-008 -1 1 -4.371139e-008 398.5962 97.7141)">22</text>
		
			<text transform="matrix(-4.371139e-008 -1 1 -4.371139e-008 398.5962 30.9895)">24</text>
		
			<text transform="matrix(-4.371139e-008 -1 1 -4.371139e-008 398.5962 64.6711)">23</text>
		
			<text transform="matrix(-4.371139e-008 -1 1 -4.371139e-008 426.0278 97.7141)">25</text>
		
			<text transform="matrix(-4.371139e-008 -1 1 -4.371139e-008 426.0288 64.6711)">26</text>
		
			<text transform="matrix(-4.371139e-008 -1 1 -4.371139e-008 426.0278 30.9895)">27</text>
		
			<text transform="matrix(-4.371139e-008 -1 1 -4.371139e-008 452.6968 97.7141)">28</text>
		
			<text transform="matrix(-4.371139e-008 -1 1 -4.371139e-008 452.6968 30.9895)">30</text>
		
			<text transform="matrix(-4.371139e-008 -1 1 -4.371139e-008 452.6978 64.6711)">29</text>
		
			<text transform="matrix(-4.371139e-008 -1 1 -4.371139e-008 479.2378 97.7141)">31</text>
		
			<text transform="matrix(-4.371139e-008 -1 1 -4.371139e-008 479.2388 64.6711)">32</text>
		
			<text transform="matrix(-4.371139e-008 -1 1 -4.371139e-008 479.2378 30.9895)">33</text>
		
			<text transform="matrix(-4.371139e-008 -1 1 -4.371139e-008 505.9067 97.7141)">34</text>
		
			<text transform="matrix(-4.371139e-008 -1 1 -4.371139e-008 505.9067 30.9895)">36</text>
		
			<text transform="matrix(-4.371139e-008 -1 1 -4.371139e-008 505.9077 64.6711)">35</text>
		
			<text transform="matrix(-4.371139e-008 -1 1 -4.371139e-008 533.0688 34.1672)">2-1</text>
		
			<text transform="matrix(-4.371139e-008 -1 1 -4.371139e-008 533.0688 100.8938)">2-1</text>
		
			<text transform="matrix(-4.371139e-008 -1 1 -4.371139e-008 533.0688 67.8489)">2-1</text>
		<text transform="matrix(1 0 0 1 226.3706 120.072)" fill="#fff" font-family="'Verdana'" font-size="12">1st 12</text>
		<text transform="matrix(1 0 0 1 332.0239 120.072)" fill="#fff" font-family="'Verdana'" font-size="12">2nd 12</text>
		<text transform="matrix(1 0 0 1 441.0845 120.071)" fill="#fff" font-family="'Verdana'" font-size="12">3rd 12</text>
		<text transform="matrix(1 0 0 1 205.0933 139.8757)" fill="#fff" font-family="'Verdana'" font-size="12">1-18</text>
		<text transform="matrix(1 0 0 1 258.0073 139.8757)" fill="#fff" font-family="'Verdana'" font-size="12">Even</text>
		<text transform="matrix(1 0 0 1 421.9009 139.8748)" fill="#fff" font-family="'Verdana'" font-size="12">Odd</text>
		<text transform="matrix(1 0 0 1 469.729 139.8757)" fill="#fff" font-family="'Verdana'" font-size="12">19-36</text>
		<text transform="matrix(1 0 0 1 315.6938 139.8748)" fill="#fff" font-family="'Verdana'" font-size="12">Red</text>
		<text transform="matrix(1 0 0 1 365.2524 139.8748)" fill="#fff" font-family="'Verdana'" font-size="12">Black</text>
	</g>
</g>
<g>
	<g>
		<g>
			<g id="XMLID_2_">
				<g>
					<path fill="#f00" d="M159.834,82.584c0,1.085-0.026,2.17-0.077,3.255l-77.358-3.255l76.802-9.842h0.013
						C159.627,75.971,159.834,79.251,159.834,82.584z"/>
					<path d="M82.399,82.584l77.358,3.255c-0.168,4.472-0.736,8.851-1.654,13.085L82.399,82.597h-0.026l-0.013-0.016L82.399,82.584
						L82.399,82.584z"/>
					<path d="M159.214,72.742h-0.013l-76.802,9.842H82.36l0.013-0.013l74.064-22.695h0.013
						C157.729,64.023,158.659,68.324,159.214,72.742z"/>
					<path fill="#f00" d="M82.399,82.597l75.704,16.324c-0.917,4.343-2.208,8.554-3.836,12.581l-0.026-0.013L82.399,82.597z"/>
					<path fill="#f00" d="M156.45,59.876h-0.013L82.373,82.571l69.182-34.875h0.013C153.531,51.584,155.171,55.653,156.45,59.876
						z"/>
					<path d="M154.241,111.492l0.026,0.013c-1.641,4.098-3.63,8.011-5.916,11.715h-0.013L82.386,82.61l-0.013-0.013h0.026
						L154.241,111.492z"/>
					<path d="M151.567,47.696h-0.013L82.373,82.571v-0.013l62.284-46.074C147.266,39.998,149.578,43.756,151.567,47.696z"/>
					<path fill="#f00" d="M148.338,123.219h0.013c-2.312,3.762-4.934,7.313-7.84,10.605l-0.013-0.013L82.386,82.61
						L148.338,123.219z"/>
					<path fill="#f00" d="M144.657,36.484L82.373,82.558v-0.016l53.591-55.891l0.026-0.026
						C139.154,29.665,142.048,32.958,144.657,36.484z"/>
					<path d="M140.498,133.812l0.013,0.013c-2.893,3.281-6.071,6.316-9.481,9.067L82.347,82.597v-0.016h0.013l0.013,0.016
						l0.013,0.013L140.498,133.812z"/>
					<path d="M135.99,26.629l-0.026,0.026l-53.591,55.89v-0.013l43.361-64.131l0.026-0.039
						C129.402,20.83,132.825,23.594,135.99,26.629z"/>
					<path fill="#f00" d="M82.347,82.597l48.683,60.295c-3.397,2.764-7.026,5.218-10.875,7.359l-0.013-0.013L82.347,82.623
						V82.597z"/>
					<path fill="#f00" d="M125.76,18.362l-0.026,0.039L82.373,82.532l31.904-70.563l0.013-0.023
						C118.307,13.764,122.143,15.908,125.76,18.362z"/>
					<path d="M120.141,150.242l0.013,0.013c-3.811,2.146-7.828,3.965-12.013,5.438l-25.794-73.07L120.141,150.242z"/>
					<path d="M114.29,11.943l-0.013,0.023L82.373,82.532v0.013H82.36l19.504-74.968V7.564
						C106.166,8.675,110.312,10.147,114.29,11.943z"/>
					<path fill="#f00" d="M82.347,82.623l25.794,73.069c-4.095,1.447-8.331,2.544-12.71,3.281v-0.026L82.347,82.623z"/>
					<path fill="#f00" d="M101.864,7.564v0.013L82.36,82.545v0.016h-0.013v-0.055l6.562-77.125V5.355
						C93.352,5.73,97.679,6.479,101.864,7.564z"/>
					<path d="M95.432,158.947v0.026c-4.25,0.733-8.628,1.108-13.098,1.108V82.688v-0.055v-0.013h0.013L95.432,158.947z"/>
					<rect x="82.36" y="82.545" fill="#f00" width="0.013" height="0.016"/>
					<rect x="82.36" y="82.558" fill="#f00" width="0.013" height="0.013"/>
					<polygon fill="#f00" points="82.373,82.571 82.36,82.584 82.36,82.571 					"/>
					<rect x="82.347" y="82.558" width="0.013" height="0.013"/>
					<rect x="82.347" y="82.571" fill="#f00" width="0.013" height="0.013"/>
					<path d="M82.347,82.506v0.055L62.817,7.577V7.564c4.185-1.085,8.512-1.834,12.943-2.208V5.38L82.347,82.506z"/>
					<path fill="#f00" d="M82.347,82.558v0.013h-0.013l-0.013-0.026L50.404,11.969l-0.013-0.023
						c3.965-1.795,8.125-3.271,12.426-4.379v0.013L82.347,82.558z"/>
					<rect x="82.334" y="82.571" fill="#f00" width="0.013" height="0.013"/>
					<rect x="82.334" y="82.584" fill="#f00" width="0.013" height="0.016"/>
					<polygon points="82.347,82.597 82.347,82.623 82.334,82.623 82.334,82.61 82.334,82.597 					"/>
					<path d="M82.321,82.545l0.013,0.026h-0.013L20.024,36.484c2.597-3.526,5.503-6.82,8.667-9.855l0.025,0.026L82.321,82.545z"/>
					<rect x="82.321" y="82.571" width="0.013" height="0.013"/>
					<path fill="#f00" d="M82.334,82.688v77.396c-4.456,0-8.835-0.375-13.084-1.108v-0.026L82.334,82.688z"/>
					<path d="M82.334,82.635v0.055l-13.084,76.26v0.026c-4.379-0.726-8.628-1.834-12.71-3.281L82.334,82.635z"/>
					<path fill="#f00" d="M82.334,82.623v0.013L56.54,155.692c-4.185-1.476-8.202-3.294-12.013-5.438l0.013-0.013L82.334,82.623z
						"/>
					<path d="M82.334,82.61v0.013L44.54,150.242l-0.013,0.013c-3.849-2.144-7.479-4.598-10.875-7.359L82.334,82.61z"/>
					<path fill="#f00" d="M82.334,82.597v0.013l-48.683,60.282c-3.423-2.751-6.588-5.787-9.481-9.067l0.013-0.013l58.112-51.188
						L82.334,82.597z"/>
					<path d="M82.334,82.584v0.016L10.44,111.492l-0.039,0.013c-1.615-4.027-2.919-8.238-3.836-12.581l75.756-16.34H82.334z"/>
					<path fill="#f00" d="M82.334,82.597l-0.039,0.023l-65.952,40.597l-0.013,0.016c-2.299-3.707-4.275-7.634-5.929-11.729
						l0.039-0.013L82.334,82.597z"/>
					<path d="M50.404,11.969l31.917,70.577L38.934,18.401l-0.026-0.026c3.617-2.454,7.453-4.608,11.483-6.433L50.404,11.969z"/>
					<path fill="#f00" d="M82.321,82.571v0.013L5.48,72.742H5.454c0.556-4.417,1.485-8.719,2.764-12.878l0.026,0.013
						l74.064,22.695L82.321,82.571L82.321,82.571z"/>
					<path fill="#f00" d="M38.934,18.401l43.387,64.144l-53.604-55.89l-0.025-0.026c3.151-3.035,6.574-5.799,10.217-8.253
						L38.934,18.401z"/>
					<path fill="#f00" d="M20.024,36.484l62.297,46.087h-0.013L13.114,47.696h-0.013C15.09,43.756,17.402,39.998,20.024,36.484z"
						/>
					<path fill="#f00" d="M82.321,82.584L6.565,98.924C5.648,94.689,5.08,90.31,4.912,85.839h0.013L82.321,82.584z"/>
					<path d="M82.321,82.584L4.924,85.839H4.912c-0.052-1.085-0.078-2.17-0.078-3.255c0-3.333,0.207-6.61,0.62-9.842H5.48
						L82.321,82.584z"/>
					<path d="M13.114,47.696l69.194,34.875L8.244,59.876l-0.026-0.013c1.292-4.224,2.919-8.292,4.882-12.167H13.114z"/>
					<path d="M82.295,82.623l-58.112,51.188l-0.013,0.013c-2.906-3.294-5.528-6.833-7.84-10.592l0.013-0.016L82.295,82.623z"/>
				</g>
				<g>
					<path fill="none" stroke="#000" d="M82.334,160.084c-4.456,0-8.835-0.375-13.084-1.108
						c-4.379-0.726-8.628-1.834-12.71-3.281c-4.185-1.476-8.202-3.294-12.013-5.438c-3.849-2.144-7.479-4.598-10.875-7.359
						c-3.423-2.751-6.588-5.787-9.481-9.067c-2.906-3.294-5.528-6.833-7.84-10.592c-2.299-3.707-4.275-7.634-5.929-11.729
						c-1.615-4.027-2.919-8.238-3.836-12.581C5.649,94.689,5.081,90.31,4.913,85.84c-0.052-1.085-0.078-2.17-0.078-3.255
						c0-3.333,0.207-6.611,0.62-9.842c0.556-4.417,1.485-8.719,2.764-12.878c1.292-4.224,2.919-8.292,4.882-12.167
						c1.989-3.94,4.301-7.698,6.923-11.212c2.597-3.526,5.503-6.82,8.667-9.855c3.151-3.033,6.574-5.799,10.217-8.253
						c3.617-2.454,7.453-4.608,11.483-6.433c3.965-1.795,8.125-3.271,12.426-4.379c4.185-1.085,8.512-1.834,12.943-2.208
						c2.17-0.184,4.366-0.271,6.574-0.271c2.222,0,4.405,0.09,6.575,0.271c4.443,0.375,8.771,1.124,12.956,2.208
						c4.301,1.108,8.447,2.583,12.426,4.379c4.017,1.821,7.853,3.965,11.47,6.419c3.643,2.467,7.065,5.229,10.23,8.267
						c3.165,3.036,6.058,6.329,8.667,9.855c2.609,3.514,4.921,7.271,6.91,11.212c1.963,3.888,3.604,7.957,4.882,12.18
						c1.279,4.146,2.209,8.448,2.764,12.865c0.414,3.229,0.62,6.51,0.62,9.842c0,1.085-0.026,2.17-0.077,3.255
						c-0.168,4.472-0.736,8.851-1.654,13.085c-0.917,4.343-2.208,8.554-3.836,12.581c-1.641,4.098-3.63,8.011-5.916,11.716
						c-2.312,3.761-4.934,7.313-7.84,10.604c-2.893,3.281-6.071,6.316-9.481,9.067c-3.397,2.764-7.026,5.218-10.875,7.359
						c-3.811,2.146-7.828,3.965-12.013,5.438c-4.095,1.447-8.331,2.544-12.71,3.281C91.182,159.709,86.803,160.084,82.334,160.084z"
						/>
					<line fill="none" stroke="#000" x1="82.334" y1="82.688" x2="82.334" y2="160.084"/>
					<line fill="none" stroke="#000" x1="82.347" y1="82.623" x2="95.432" y2="158.947"/>
					<line fill="none" stroke="#000" x1="82.347" y1="82.623" x2="108.142" y2="155.692"/>
					<line fill="none" stroke="#000" x1="82.347" y1="82.623" x2="120.141" y2="150.242"/>
					<polyline fill="none" stroke="#000" points="82.347,82.597 131.03,142.892 131.043,142.905 					"/>
					<line fill="none" stroke="#000" x1="82.386" y1="82.61" x2="140.498" y2="133.812"/>
					<polyline fill="none" stroke="#000" points="82.373,82.597 82.386,82.61 148.338,123.219 					"/>
					<line fill="none" stroke="#000" x1="82.399" y1="82.597" x2="154.241" y2="111.492"/>
					<polyline fill="none" stroke="#000" points="82.36,82.584 82.373,82.597 82.399,82.597 158.103,98.924 					"/>
					<line fill="none" stroke="#000" x1="82.399" y1="82.584" x2="159.757" y2="85.839"/>
					<polyline fill="none" stroke="#000" points="82.36,82.584 82.399,82.584 159.201,72.742 					"/>
					<polyline fill="none" stroke="#000" points="82.36,82.584 82.373,82.571 156.437,59.876 					"/>
					<line fill="none" stroke="#000" x1="82.373" y1="82.571" x2="151.555" y2="47.696"/>
					<polyline fill="none" stroke="#000" points="82.347,82.584 82.36,82.584 82.36,82.571 82.373,82.571 82.373,82.558 
						144.657,36.484 144.67,36.484 					"/>
					<line fill="none" stroke="#000" x1="82.373" y1="82.545" x2="135.964" y2="26.655"/>
					<line fill="none" stroke="#000" x1="82.373" y1="82.532" x2="125.734" y2="18.401"/>
					<polyline fill="none" stroke="#000" points="82.36,82.558 82.373,82.558 82.373,82.545 					"/>
					<polyline fill="none" stroke="#000" points="82.36,82.545 82.373,82.545 82.373,82.532 114.277,11.969 					"/>
					<polyline fill="none" stroke="#000" points="82.347,82.571 82.36,82.571 82.36,82.558 					"/>
					<polyline fill="none" stroke="#000" points="82.347,82.558 82.36,82.558 82.36,82.545 101.864,7.577 					"/>
					<line fill="none" stroke="#000" x1="82.347" y1="82.506" x2="88.909" y2="5.381"/>
					<polyline fill="none" stroke="#000" points="82.347,82.558 82.347,82.506 75.76,5.381 					"/>
					<polyline fill="none" stroke="#000" points="82.347,82.571 82.347,82.558 62.817,7.577 					"/>
					<line fill="none" stroke="#000" x1="82.321" y1="82.545" x2="50.404" y2="11.969"/>
					<line fill="none" stroke="#000" x1="82.321" y1="82.545" x2="38.934" y2="18.401"/>
					<polyline fill="none" stroke="#000" points="82.347,82.584 82.347,82.571 82.334,82.571 82.321,82.545 28.717,26.655 					
						"/>
					<polyline fill="none" stroke="#000" points="82.321,82.571 20.024,36.484 20.011,36.484 					"/>
					<line fill="none" stroke="#000" x1="82.308" y1="82.571" x2="13.114" y2="47.696"/>
					<polyline fill="none" stroke="#000" points="82.334,82.584 82.334,82.571 82.321,82.571 					"/>
					<polyline fill="none" stroke="#000" points="82.321,82.584 82.321,82.571 82.308,82.571 8.244,59.876 					"/>
					<line fill="none" stroke="#000" x1="82.321" y1="82.584" x2="5.48" y2="72.742"/>
					<line fill="none" stroke="#000" x1="82.321" y1="82.584" x2="4.924" y2="85.839"/>
					<polyline fill="none" stroke="#000" points="82.334,82.584 82.321,82.584 6.565,98.924 					"/>
					<line fill="none" stroke="#000" x1="82.334" y1="82.597" x2="10.44" y2="111.492"/>
					<line fill="none" stroke="#000" x1="82.295" y1="82.623" x2="16.343" y2="123.219"/>
					<polyline fill="none" stroke="#000" points="82.347,82.584 82.334,82.584 82.334,82.597 82.295,82.623 24.183,133.812 					
						"/>
					<polyline fill="none" stroke="#000" points="82.334,82.61 33.651,142.892 33.638,142.905 					"/>
					<line fill="none" stroke="#000" x1="82.334" y1="82.623" x2="44.54" y2="150.242"/>
					<line fill="none" stroke="#000" x1="82.334" y1="82.635" x2="56.54" y2="155.692"/>
					<polyline fill="none" stroke="#000" points="82.347,82.597 82.334,82.597 82.334,82.61 82.334,82.623 					"/>
					<polyline fill="none" stroke="#000" points="82.347,82.584 82.347,82.597 82.347,82.623 82.334,82.623 82.334,82.635 
						82.334,82.688 69.25,158.947 					"/>
				</g>
			</g>
		</g>
	</g>
	<path fill="#fff" stroke="#000" d="M147.609,82.667c0-35.7-28.883-64.583-64.583-64.583
		c-35.701,0-64.583,28.883-64.583,64.583c0,35.701,28.882,64.583,64.583,64.583C118.726,147.25,147.609,118.368,147.609,82.667z"/>
</g>
<g fill="#fff" font-family="'Verdana'" font-size="7">
<text transform="matrix(1 0 0 1 79.7632 13.9729)">0</text>
<text transform="matrix(0.6561 -0.7547 0.7547 0.6561 27.9106 40.6057)">28</text>
<text transform="matrix(0.9848 -0.1736 0.1736 0.9848 66.6284 15.55)">26</text>
<text transform="matrix(-0.829 0.5592 -0.5592 -0.829 125.0586 137.2795)">30</text>
<text transform="matrix(-0.7193 0.6947 -0.6947 -0.7193 132.7598 129.2131)">11</text>
<text transform="matrix(0.5299 -0.848 0.848 0.5299 23.1196 49.0784)">7</text>
<text transform="matrix(-0.5878 -0.809 0.809 -0.5878 30.0684 126.8542)">20</text>
<text transform="matrix(0.9848 0.1736 -0.1736 0.9848 89.6587 14.7253)">32</text>
<text transform="matrix(0.2079 0.9781 -0.9781 0.2079 148.8438 63.4841)">17</text>
<text transform="matrix(-0.9962 -0.0872 0.0872 -0.9962 79.0967 150.8884)">5</text>
<text transform="matrix(0.0349 -0.9994 0.9994 0.0349 14.0303 84.3606)">22</text>
<text transform="matrix(0.0349 0.9994 -0.9994 0.0349 151.373 75.5066)">34</text>
<text transform="matrix(0.9455 0.3256 -0.3256 0.9455 100.8296 17.0364)">15</text>
<text transform="matrix(0.9455 -0.3256 0.3256 0.9455 57.3789 19.0901)">3</text>
<text transform="matrix(-0.9659 -0.2588 0.2588 -0.9659 69.2808 150.7976)">24</text>
<text transform="matrix(-0.1219 -0.9925 0.9925 -0.1219 14.603 93.7937)">9</text>
<text transform="matrix(-0.5878 0.809 -0.809 -0.5878 140.6309 120.093)">36</text>
<text transform="matrix(-0.454 0.891 -0.891 -0.454 145.9873 109.5212)">13</text>
<text transform="matrix(-0.7193 -0.6947 0.6947 -0.7193 35.8667 133.8928)">1</text>
<text transform="matrix(-0.2924 0.9563 -0.9563 -0.2924 149.7021 98.7307)">27</text>
<text transform="matrix(-0.9962 0.0872 -0.0872 -0.9962 92.6875 151.3069)">10</text>
<text transform="matrix(0.3746 0.9272 -0.9272 0.3746 144.8848 52.5022)">25</text>
<text transform="matrix(0.3746 -0.9272 0.9272 0.3746 17.2349 61.3147)">29</text>
<text transform="matrix(0.7771 -0.6293 0.6293 0.7771 35.7539 32.3723)">12</text>
<text transform="matrix(-0.9135 0.4067 -0.4067 -0.9135 112.7778 145.1052)">8</text>
<text transform="matrix(0.8746 0.4848 -0.4848 0.8746 111.7959 20.2014)">19</text>
<text transform="matrix(-0.2924 -0.9563 0.9563 -0.2924 18.3076 107.2009)">31</text>
<text transform="matrix(0.2079 -0.9781 0.9781 0.2079 14.5713 72.7498)">18</text>
<text transform="matrix(-0.1219 0.9925 -0.9925 -0.1219 150.6465 89.5364)">6</text>
<text transform="matrix(0.6561 0.7547 -0.7547 0.6561 130.4258 33.9304)">21</text>
<text transform="matrix(-0.829 -0.5592 0.5592 -0.829 47.4141 141.8562)">33</text>
<text transform="matrix(-0.9135 -0.4067 0.4067 -0.9135 57.8364 146.9797)">16</text>
<text transform="matrix(0.7771 0.6293 -0.6293 0.7771 123.9712 28.1707)">4</text>
<text transform="matrix(-0.9659 0.2588 -0.2588 -0.9659 103.5386 148.0955)">23</text>
<text transform="matrix(0.8746 -0.4848 0.4848 0.8746 45.1309 24.9163)">35</text>
<text transform="matrix(-0.454 -0.891 0.891 -0.454 23.5029 117.0129)">14</text>
<text transform="matrix(0.5299 0.848 -0.848 0.5299 139.2896 45.1853)">2</text>
</g>
</svg>
