<svg version="1.1" viewBox="0 0 432 432" xmlns="http://www.w3.org/2000/svg">
 <path d="m0 0h432v432h-432z" fill="#fff"/>
 <g fill="none">
  <g stroke="#aaa">
   <circle cx="216" cy="216" r="134.167"/>
   <circle cx="216" cy="216" r="115"/>
   <circle cx="216" cy="216" r="95.833"/>
   <circle cx="216" cy="216" r="76.667"/>
   <circle cx="216" cy="216" r="57.5"/>
   <circle cx="216" cy="216" r="38.333"/>
   <circle cx="216" cy="216" r="19.167"/>
   <circle cx="216" cy="216" r="153.333"/>
   <path d="m216 388.5v-345m-172.5 172.5h345m-50.5 122-244-244m0 244 244-244"/>
  </g>
  <circle cx="216" cy="216" r="172.5" stroke="#000"/>
  <circle cx="216" cy="216" r="1" fill="#00f"/>
  <path d="m216.717 216c0.01-0.059 0.013-0.121 9e-3 -0.183-5e-3 -0.063-0.017-0.126-0.038-0.188s-0.05-0.123-0.086-0.181c-0.037-0.057-0.082-0.111-0.134-0.16s-0.111-0.092-0.176-0.129c-0.065-0.036-0.137-0.065-0.212-0.084-0.075-0.02-0.154-0.031-0.235-0.032s-0.165 8e-3 -0.247 0.027c-0.082 0.02-0.164 0.051-0.243 0.092-0.078 0.041-0.153 0.093-0.222 0.154-0.069 0.062-0.131 0.133-0.185 0.213s-0.099 0.169-0.134 0.264c-0.034 0.094-0.057 0.195-0.067 0.3-0.011 0.105-8e-3 0.213 8e-3 0.322 0.016 0.108 0.046 0.217 0.091 0.323 0.044 0.106 0.102 0.209 0.174 0.304 0.072 0.096 0.157 0.185 0.255 0.264 0.097 0.078 0.206 0.147 0.324 0.201 0.119 0.055 0.247 0.096 0.381 0.121s0.274 0.034 0.416 0.026c0.142-9e-3 0.286-0.036 0.428-0.081 0.141-0.046 0.28-0.109 0.412-0.191 0.131-0.082 0.256-0.183 0.368-0.299 0.113-0.117 0.213-0.25 0.297-0.397s0.151-0.307 0.199-0.478c0.047-0.17 0.074-0.349 0.079-0.534 4e-3 -0.184-0.014-0.373-0.057-0.561-0.042-0.188-0.109-0.374-0.2-0.553-0.091-0.18-0.207-0.351-0.345-0.509-0.138-0.159-0.298-0.303-0.479-0.428-0.18-0.125-0.379-0.23-0.594-0.31-0.214-0.08-0.443-0.135-0.68-0.162-0.238-0.026-0.484-0.024-0.731 0.01s-0.495 0.099-0.737 0.197c-0.241 0.097-0.476 0.227-0.696 0.388-0.219 0.16-0.424 0.351-0.605 0.57-0.181 0.218-0.339 0.464-0.467 0.732-0.127 0.268-0.224 0.557-0.285 0.861-0.061 0.303-0.085 0.621-0.069 0.944 0.016 0.322 0.072 0.65 0.171 0.973s0.24 0.64 0.423 0.942c0.182 0.301 0.406 0.586 0.668 0.845 0.262 0.258 0.562 0.49 0.893 0.684 0.331 0.195 0.694 0.353 1.079 0.465 0.385 0.113 0.792 0.18 1.211 0.195 0.418 0.016 0.848-0.021 1.275-0.112 0.428-0.092 0.854-0.238 1.263-0.44 0.41-0.202 0.803-0.459 1.166-0.768s0.695-0.67 0.984-1.076c0.288-0.405 0.532-0.856 0.721-1.34 0.188-0.485 0.32-1.003 0.387-1.542 0.067-0.538 0.068-1.097-2e-3 -1.659s-0.212-1.128-0.426-1.679c-0.215-0.551-0.503-1.088-0.861-1.591-0.359-0.503-0.787-0.973-1.279-1.391-0.491-0.417-1.045-0.783-1.649-1.081-0.604-0.297-1.259-0.525-1.946-0.672-0.688-0.147-1.409-0.211-2.143-0.183-0.733 0.027-1.479 0.147-2.215 0.362s-1.46 0.527-2.15 0.933-1.344 0.907-1.938 1.494c-0.595 0.588-1.129 1.262-1.58 2.008-0.452 0.747-0.82 1.566-1.086 2.437-0.267 0.871-0.43 1.795-0.477 2.745s0.024 1.927 0.219 2.9c0.196 0.974 0.517 1.945 0.964 2.88 0.447 0.936 1.02 1.837 1.712 2.67 0.691 0.833 1.502 1.598 2.415 2.264 0.913 0.667 1.929 1.234 3.024 1.675 1.094 0.441 2.268 0.756 3.489 0.923s2.49 0.185 3.769 0.042c1.278-0.144 2.567-0.449 3.825-0.921s2.485-1.111 3.638-1.911c1.152-0.799 2.231-1.76 3.193-2.864 0.963-1.104 1.809-2.352 2.501-3.716 0.693-1.363 1.23-2.843 1.582-4.401 0.352-1.557 0.518-3.193 0.477-4.859-0.042-1.667-0.292-3.365-0.761-5.042-0.468-1.676-1.156-3.331-2.058-4.909-0.903-1.578-2.022-3.077-3.339-4.444-1.317-1.366-2.834-2.598-4.517-3.644-1.682-1.047-3.532-1.906-5.503-2.535s-4.064-1.027-6.22-1.16-4.376 0-6.593 0.417-4.43 1.119-6.568 2.107c-2.137 0.989-4.198 2.265-6.11 3.812-1.911 1.548-3.671 3.367-5.21 5.422-1.54 2.055-2.856 4.347-3.889 6.82-1.033 2.474-1.78 5.131-2.194 7.899-0.413 2.769-0.49 5.649-0.201 8.557 0.29 2.908 0.948 5.844 1.985 8.714 1.036 2.87 2.453 5.674 4.236 8.314 1.783 2.641 3.934 5.117 6.414 7.334s5.291 4.174 8.369 5.784c3.077 1.611 6.423 2.873 9.95 3.716 3.527 0.844 7.237 1.266 11.023 1.218 3.787-0.047 7.65-0.568 11.471-1.585 3.821-1.016 7.599-2.531 11.207-4.537 3.608-2.005 7.045-4.505 10.185-7.458s5.98-6.362 8.404-10.154 4.428-7.969 5.912-12.428 2.445-9.2 2.807-14.093c0.363-4.893 0.123-9.938-0.76-14.984-0.884-5.046-2.417-10.092-4.601-14.975-2.185-4.882-5.027-9.599-8.487-13.983s-7.542-8.432-12.165-11.986c-4.624-3.553-9.792-6.608-15.381-9.023-5.589-2.416-11.601-4.187-17.876-5.203-6.276-1.016-12.815-1.273-19.428-0.697s-13.298 1.988-19.845 4.261c-6.547 2.274-12.954 5.413-19.001 9.388s-11.73 8.791-16.835 14.361-9.627 11.899-13.371 18.842c-3.744 6.944-6.704 14.507-8.719 22.494-2.015 7.986-3.078 16.399-3.076 24.999 2e-3 8.601 1.076 17.389 3.277 26.095s5.535 17.328 9.989 25.579c4.454 8.25 10.034 16.126 16.652 23.34s14.28 13.76 22.824 19.371 17.974 10.279 28.058 13.775 20.824 5.811 31.926 6.772 22.567 0.558 34.051-1.307c11.485-1.866 22.988-5.204 34.137-10.029 11.15-4.824 21.941-11.145 31.995-18.879 10.053-7.735 19.362-16.892 27.562-27.292s15.283-22.05 20.925-34.675 9.834-26.23 12.318-40.453" stroke="#00f" stroke-linecap="round" stroke-width="2"/>
 </g>
</svg>
